#!OML:ASF H:\Dans Jumps\Project 1\Capture day 1\Session 1\subject.ASF
:FULLY-SPECIFIED
:DEGREES
568
root 0.647707 17.7365 6.84224 6.73192 -0.768489 -1.21239
lowerback -1.75464 -0.188568 -0.48412
upperback 2.48886 -0.285568 1.58356
thorax 3.55386 -0.178274 1.88807
lowerneck -12.4325 0.0830016 -1.53408
upperneck 24.2407 0.440384 0.101376
head 9.71456 0.0743512 0.347823
rclavicle 1.78906e-015 -1.61016e-014
rhumerus -27.339 -16.4659 -78.0056
rradius 23.0635
rwrist 34.5801
rhand -19.6519 -25.4605
rfingers 7.12502
rthumb 6.67588 -55.3353
lclavicle 1.78906e-015 -1.61016e-014
lhumerus -22.9999 3.82137 85.4749
lradius 17.4324
lwrist 1.92072
lhand -25.7712 -5.62182
lfingers 7.12502
lthumb 0.766697 24.3565
rfemur -12.9747 -2.88732 19.4265
rtibia 20.2131
rfoot -12.5456 0.347113
rtoes 12.8688
lfemur -12.6948 7.12011 -18.1555
ltibia 17.3401
lfoot -9.22861 3.47799
ltoes 0.333471
569
root 0.64824 17.7366 6.84041 6.7226 -0.762139 -1.20772
lowerback -1.75805 -0.184985 -0.48599
upperback 2.47428 -0.280566 1.58367
thorax 3.54052 -0.175667 1.88943
lowerneck -12.4274 0.0883672 -1.51495
upperneck 24.1748 0.448582 0.079966
head 9.69019 0.0779652 0.337935
rclavicle -2.08724e-015 5.96354e-015
rhumerus -27.3356 -16.3986 -78.0294
rradius 23.1119
rwrist 34.5144
rhand -19.641 -25.4773
rfingers 7.12502
rthumb 6.68643 -55.3518
lclavicle -2.08724e-015 5.96354e-015
lhumerus -23.0216 3.8308 85.4755
lradius 17.4237
lwrist 1.90868
lhand -25.7707 -5.61007
lfingers 7.12502
lthumb 0.767234 24.3683
rfemur -12.9712 -2.88926 19.4194
rtibia 20.2144
rfoot -12.5432 0.341251
rtoes 12.8586
lfemur -12.6859 7.12144 -18.1615
ltibia 17.3285
lfoot -9.22408 3.46702
ltoes 0.346692
570
root 0.649041 17.7367 6.83816 6.71439 -0.755027 -1.19229
lowerback -1.76562 -0.183312 -0.498171
upperback 2.46292 -0.277756 1.58212
thorax 3.533 -0.174454 1.89478
lowerneck -12.4231 0.0949829 -1.50539
upperneck 24.111 0.459513 0.063446
head 9.66674 0.082509 0.331709
rclavicle -3.72721e-015 -1.68967e-014
rhumerus -27.3192 -16.3347 -78.052
rradius 23.1418
rwrist 34.4611
rhand -19.6326 -25.4903
rfingers 7.12502
rthumb 6.69449 -55.3645
lclavicle -3.72721e-015 -1.68967e-014
lhumerus -23.0365 3.83964 85.4792
lradius 17.413
lwrist 1.89849
lhand -25.7726 -5.61139
lfingers 7.12502
lthumb 0.765404 24.367
rfemur -12.9735 -2.90292 19.4
rtibia 20.2212
rfoot -12.5421 0.344754
rtoes 12.8493
lfemur -12.6789 7.12172 -18.181
ltibia 17.3146
lfoot -9.2159 3.45588
ltoes 0.348384
571
root 0.64977 17.7367 6.83594 6.70647 -0.748142 -1.18099
lowerback -1.77067 -0.18167 -0.508069
upperback 2.45283 -0.275127 1.58231
thorax 3.52538 -0.173302 1.90063
lowerneck -12.4025 0.101237 -1.50094
upperneck 24.0303 0.469391 0.0519808
head 9.63416 0.0867995 0.327905
rclavicle -5.41688e-015 4.17448e-015
rhumerus -27.2981 -16.2827 -78.073
rradius 23.1674
rwrist 34.4227
rhand -19.6256 -25.5062
rfingers 7.12502
rthumb 6.70124 -55.3802
lclavicle -5.41688e-015 4.17448e-015
lhumerus -23.0442 3.84115 85.4839
lradius 17.397
lwrist 1.88879
lhand -25.7758 -5.632
lfingers 7.12502
lthumb 0.762273 24.3464
rfemur -12.9777 -2.91674 19.3854
rtibia 20.2312
rfoot -12.5419 0.350069
rtoes 12.851
lfemur -12.6725 7.12356 -18.1958
ltibia 17.3009
lfoot -9.20656 3.44394
ltoes 0.35204
